<?xml version="1.0" encoding="utf-8"?>

<!DOCTYPE svg PUBLIC "-//W3C//DTD SVG 1.1//EN" "http://www.w3.org/Graphics/SVG/1.1/DTD/svg11.dtd">
<svg version="1.1" id="Layer_1" xmlns="http://www.w3.org/2000/svg" xmlns:xlink="http://www.w3.org/1999/xlink" x="0px" y="0px"
	 viewBox="0 0 1554.986 1652.737" enable-background="new 0 0 1554.986 1652.737" xml:space="preserve" fill="#038767">
<g>
	<path d="M822.849,291.584c-12.344-2.401-40.713,16.301-49.16,26.549c-41.159,49.937-11.196,119.372,33.567,151.335
		c16.092,11.49,32.436,9.11,31.28,18.446c-1.2,9.682-9.464,7.007-33.731,11.809c-68.078,13.472-77.588,48.395-110.073,41.127
		c-82.969-18.563-153.326-1.433-284.258,51.464c-15.326,6.191-105.178,57.908-170.38,102.032
		c-15.556,10.528-105.12,92.371-114.674,101.137c-8.48,7.78-12.508,15.291-26.087,20.944c-9.315,3.877-13.573,1.318-15.041-8.816
		c-0.99-6.836,1.656-13.047,3.106-19.462c25.009-110.615,41.858-154.737,119.451-287.52
		c35.849-61.347,125.799-182.687,194.826-199.84c10.434-2.593,117.921,19.909,133.591,16.423
		c57.409-12.769,109.525-32.379,139.278-110.159c2.039-5.329,2.811-11.045,5.352-16.265c21.29-43.728,81.121-25.297,117.195-16.179
		c57.971,14.653,116.603,28.243,165.004,65.531c7.217,5.56,7.66,12.772,1.226,19.258
		C923.158,299.887,858.269,288.431,822.849,291.584z"/>
	<path d="M274.212,1234.381c-56.618-47.639-70.498-65.129-96.907-113.298c-25.708-46.89-39.165-97.715-49.109-149.803
		c-25.008-130.99-27.85-135.058-12.807-147.153c63.905-51.382,69.613-87.955,243.162-190.137
		c57.824-34.045,138.118-62.453,166.479-69.526c24.623-6.141,57.294-11.138,62.325-10.616c7.647,0.793,7.064,7.092,1.98,9.271
		c-27.735,11.889-82.846,26.229-140.038,88.487c-67.949,73.968-189.581,317.641-79.212,411.282c3.09,2.621,5.996,1.964,9.379,0.289
		c72.727-35.995,87.702-88.937,97.789-67.101c16.592,35.916,0.722,27.052,2.02,122.273c0.423,31.008,26.731,103.128,15.192,115.317
		C430.286,1301.468,333.033,1283.873,274.212,1234.381z"/>
	<path d="M1201.757,460.351c-12.602,27.921-7.01,60.309-61.344,87.025c-7.003,3.443-14.239,2.573-21.551,1.262
		c-51.027-9.152-56.792-17.549-73.443-27.821c-48.684-30.033-121.607-55.693-184.466-41.955
		c-12.478,2.727-14.24-6.973-26.726-11.297c-64.428-22.313-85.053-91.621-54.255-135.858c27.928-40.114,79.868-29.122,88.174-28.933
		c44.117,1.002,85.412-15.398,117.444-43.501c9.672-8.486,20.546-6.36,31.56-5.085c8.095,0.937,13.974,6.135,20.352,10.323
		c59.523,39.083,113.526,46.804,158.476,128.593C1210.341,419.238,1210.107,441.85,1201.757,460.351z"/>
	<path d="M450.839,666.722c26.548-34.031,91.602-81.175,165.742-99.092c15.31-3.7,37.56-17.516,76.485-12.427
		c6.026,0.788,9.203,3.897,8.267,9.669c-3.154,19.469-2.233,41.7-21.684,56.838c-53.896,41.946-57.031,63.665-77.302,55.578
		c-42.789-17.073-121.749,49.919-142.36,97.762c-24.155,56.07-3.982,71.073-17.448,95.824
		c-60.128,110.523-67.473,179.918-85.168,156.556C331.427,993.178,326.365,826.287,450.839,666.722z"/>
	<path d="M882.038,701.945c-18.543-3.65-54.493,1.281-113.603-26.393c-32.753-15.334-51.419-41.341-58.334-76.116
		c-12.374-62.228,115.558-106.68,123.625-79.538c18.96,63.788,95.607,91.864,162.693,84.923c8.003-0.828,13.037,0.832,11.591,19.068
		c-4.825,60.836,32.637,82.276,5.107,86.049C962.343,716.896,918.738,709.169,882.038,701.945z"/>
	<path d="M579.759,691.074c17.656-5.308,13.88,7.818,54.655,44.412c51.876,46.558,103.522,145.624,118.263,204.21
		c9.107,36.192,39.64,149.033,28.13,185.977c-0.488,1.568-0.372,3.973-2.878,3.904c-2.141-0.059-2.094-2.194-2.543-3.63
		c-13.598-43.437-8.512-32.32-48.624-134.839c-13.848-35.392-31.027-91.66-88.125-144.223c-8.917-8.209-30.649-43.155-84.12-40.059
		c-8.072,0.468-43.135,16.5-63.479,58.151c-2.154,4.41-4.103,9.546-9.766,9.478c-5.548-0.066-6.987-5.51-8.982-9.616
		C438.432,795.146,504.026,713.84,579.759,691.074z"/>
	<path d="M530.876,1591.869c-18.352-8.264,4.994-18.841,13.999-25.202c57.979-40.954,90.612-103.041,97.684-163.205
		c1.182-10.058,7.2-13.646,16.641-9.889c81.868,32.581,115.109,44.298,116.613,91.189c1.224,38.16-10.429,72.279-38.288,99.701
		c-16.602,16.341-37.604,24.415-59.231,31.224C633.92,1629.66,573.431,1611.03,530.876,1591.869z"/>
	<path d="M658.378,156.522c9.617,7.215,12.815,14.568,10.516,25.955c-13.524,66.987-59.973,106.751-125.982,121.625
		c-9.292,2.094-11.866-0.258-10.894-9.667c1.045-10.125,1.279-20.402,3.213-30.351c5.643-29.038-11.011-75.737-25.455-100.079
		c-10.618-17.895-35.777-39.981-52.432-52.611C425.366,87.144,355.318,62.471,315.06,54.826c-7.761-1.474-9.191-4.674-5.833-11.765
		C331.796-4.588,526.435,57.534,658.378,156.522z"/>
	<path d="M261.297,1454.554c-39.098-31.199-69.736-69.182-92.531-113.627c-3.053-5.952-2.613-11.175,1.394-16.458
		c82.366-108.612,55.482-80.724,98.325-31.772c56.121,64.124,92.024,37.876,160.933,126.476c6.093,7.834,3.977,17.419-4.799,22.236
		c-24.788,13.605-73.27,32.231-83.39,33.796C310.107,1480.019,284.206,1472.835,261.297,1454.554z"/>
	<path d="M76.183,970.147c0.112-10.145-7.067-103.294-1.326-123.903c2.325-8.349,9.971-9.904,15.714-2.725
		c2.492,3.115,2.662,6.971,3.187,10.669c27.444,193.555,56.401,275.282,127.561,352.576c4.661,5.063,6.044,10.848,3.649,17.369
		c-18.153,49.422-40.764,50.519-61.198,80.15c-6.435,9.332-11.534,9.259-18.794,0.445c-10.203-12.387-18.763-25.661-24.719-40.636
		C109.035,1235.878,73.666,1198.052,76.183,970.147z"/>
	<path d="M1076.101,721.933c-9.273,1.024-16.44-2.923-22.275-9.477c-40.094-45.037-35.564-74.781-25.933-102.394
		c2.573-7.378,8.239-12.518,15.512-15.58c54.666-23.007,53.963-33.387,62.614-22.584c5.106,6.376,25.05,45.656,78.822,38.672
		c17.903-2.325,13.914,10.189,47.616,22.917c17.33,6.545,33.126,16.179,48.446,26.535c18.44,12.465-3.729,16.073-54.527,32.411
		c-22.141,7.121-43.63,16.202-66.513,21.099C1110.732,724.046,1081.675,721.318,1076.101,721.933z"/>
	<path d="M1116.908,1467.214c5.067,24.387-8.511,45.607-23.45,56.828c-21.624,16.242-44.82,29.301-70.859,37.384
		c-20.71,6.429-29.916,19.969-97.827,25.855c-9.734,0.844-8.553-9.786-7.859-16.733c8.17-81.845-29.23-96.652,6.072-103.304
		c11.545-2.175,85.105-31.705,100.81-38.258C1072.9,1408.498,1112.676,1446.842,1116.908,1467.214z"/>
	<path d="M1126.206,1450.034c-23.662-35.496-34.931-34.555-23.249-45.412c118.763-110.386,162.892-149.477,211.313-125.245
		c15.024,7.519,15.672,31.552,1.218,42.524c-10.602,8.048-20.481,16.824-29.884,26.198c-5.582,5.564-54.574,31.503-101.701,97.811
		c-21.791,30.66-4.797,40.748-10.298,52.32c-20.445,43.01-104.004,82.267-106.834,65.874c-0.893-5.17,5.055-4.59,41.405-32.976
		C1136.319,1509.153,1140.441,1471.388,1126.206,1450.034z"/>
	<path d="M1204.999,1494.51c-11.628-2.294-15.338-6.303-15.589-18.061c-0.123-5.74,1.267-11.242,4.728-16.195
		c43.783-62.66,87.086-90.288,113.126-109.53c14.066-10.393,29.828-9.707,36.69-4.872c10.978,7.736,22.064,15.319,33.109,22.961
		c11.57,8.006,15.228,21.165,7.497,32.863c-40.711,61.598-36.852,96.378-65.763,98.173
		C1308.454,1500.49,1262.596,1505.875,1204.999,1494.51z"/>
	<path d="M458.555,1413.886c-6.302,4.309-8.693,4.081-13.464-1.971c-35.41-44.922-80.209-75.657-110.807-87.959
		c-39.357-15.824-76.656-59.909-66.688-67.422c4.736-3.57,35.487,17.341,69.192,27.286c75,22.128,116.618-2.834,137.455-15.126
		c23.425-13.818,33.881-30.427,42.916-12.383C541.731,1305.382,483.099,1397.105,458.555,1413.886z"/>
	<path d="M900.812,1560.582c-3.326,24.33-50.961,66.292-112.928,65.27c-19.21-0.317-64.739,4.605-57.861-12.188
		c4.461-10.893,33.868-17.535,50.309-70.138c29.245-93.571-11.722-71.021,84.296-79.214c9.811-0.837,18.044,2.435,22.689,11.91
		C908.353,1519.131,902.593,1547.55,900.812,1560.582z"/>
	<path d="M634.606,875.662c4.866-3.082,8.602-2.813,12.447,1.448c14.489,16.056,26.27,33.972,35.319,53.591
		c6.443,13.968-9.071,15.197-37.136,60.134c-44.048,70.529-4.075,114.803-88.83,48.001
		C523.058,1012.554,568.328,917.635,634.606,875.662z"/>
	<path d="M760.548,1164.822c0,43.848-23.432-28.846-119.636-78.566c-6.596-3.409-9.072-7.917-7.965-15.383
		c10.037-67.651,56.402-125.192,65.781-102.875c24.289,57.795,52.765,101.973,61.733,195.378
		C760.547,1164.266,760.567,1165.163,760.548,1164.822z"/>
	<path d="M106.333,1271.485c13.368,22.722-28.539,17.188-44.495-18.906c-24.751-55.99-38.567-140.68-36.842-179.83
		c8.039-182.419,36.295-199.861,36.289-146.803C61.261,1154.245,76.828,1221.331,106.333,1271.485z"/>
	<path d="M617.847,851.702c4.024,6.942,3.696,10.164-2.419,15.438c-84.661,73.013-74.788,149.125-94.631,126.611
		C429.937,890.662,565.807,761.934,617.847,851.702z"/>
	<path d="M890.893,554.924c-10.349,4.927-17.974,2.339-34.754-16.31c-19.121-21.251,3.846-58.791,59.744-49.964
		c60.348,9.53,60.505,9.643,143.037,54.721c9.073,4.956,16.794,4.264,17.159,10.981c0.503,9.25-6.493,12.364-11.273,14.523
		c-33.688,15.22-40.809,21.591-53.096,8.563C978.007,541.703,929.408,536.59,890.893,554.924z"/>
	<path d="M1215.983,608.854c-4.487-2.398-5.186-7.064-1.471-10.843c38.008-38.669,34.953-51.227,48.159-48.453
		c38.8,8.151,82.079,44.275,108.909,74.968c10.391,11.887,5.718,29.015-12.203,32.667
		C1309.559,667.346,1280.614,643.391,1215.983,608.854z"/>
	<path d="M1076.962,1307.371c25.79-31.216,57.058-53.946,96.266-65.251c11.661-3.363,10.888,2.928,29.304,20.267
		c5.44,5.122,5.369,10.029-0.22,15.674c-41.759,42.183-85.275,78.785-125.985,107.843c-7.998,5.709-13.627,3.373-14.721-6.486
		C1057.616,1343.468,1056.853,1331.71,1076.962,1307.371z"/>
	<path d="M588.896,1495.995c-2.612,11.577-13.081,23.729-21.794,31.767c-9.252,8.536-83.797-26.638-105.347-81.036
		c-4.452-11.238,0.773-14.414,27.87-41.794c5.883-5.945,12.521-7.129,19.422-2.39
		C537.757,1422.255,585.092,1461.444,588.896,1495.995z"/>
	<path d="M1365.604,1493.187c-7.309,0.402-10.691-3.69-8.639-10.17c1.355-4.279,12.006-33.154,38.601-69.77
		c7.449-10.256,17.29-15,30.718-12.968c72.544,10.979,96.159-9.228,102.877,3.482
		C1538.055,1420.588,1460.945,1483.045,1365.604,1493.187z"/>
	<path d="M394.376,234.564c-5.706-0.005-13.358-5.786-15.822-15.349c-18.071-70.12-15.498-35.151,74.67-72.053
		c2.874-1.176,13.877-8.827,24.004-0.472c11.722,9.671,21.191,21.217,27.991,34.875C520.839,212.94,434.19,233.588,394.376,234.564z
		"/>
	<path d="M609.333,1470.645c-5.163,9.541-11.367,5.318-17.352-3.671c-54.818-82.329-89.951-72.702-80.6-95.813
		c12.871-31.812,21.02-41.747,36.759-36.567c37.168,12.232,61.437,37.363,74.142,74.112
		C624.593,1415.386,624.102,1443.355,609.333,1470.645z"/>
	<path d="M518.482,288.355c-7.194,28.476-44.708,1.574-121.628-2.946c-4.459-0.262-7.065-2.116-8.293-6.164
		c-2.309-7.61-3.343-15.425-2.847-23.35c1.303-20.811,32.322,3.817,116.829-36.017c14.498-6.834,18.131-4.758,20.601,10.997
		C525.888,248.369,522.767,271.395,518.482,288.355z"/>
	<path d="M456.233,1558.599c-20.693-23.551-34.519-50.792-42.84-80.907c-2.607-9.434,3.862-15.818,25.564-23.114
		c3.87-1.301,7.038-0.554,9.362,2.965c51.723,78.318,109.694,75.445,83.998,97.034c-4.312,3.623-9.193,6.2-14.475,8.028
		C500.768,1568.512,475.107,1580.079,456.233,1558.599z"/>
	<path d="M372.79,156.856c-7.643,0.668-11.695-1.876-14.35-7.082c-34.432-67.526-43.18-67.902-36.064-76.724
		c2.243-2.781,5.422-3.634,8.743-2.555c13.635,4.434,83.714,23.437,116.355,49.833C470.705,139.114,402.5,154.978,372.79,156.856z"
		/>
	<path d="M1132.843,583.001c-19.717-24.504,28.079-8.6,65.699-72.544c5.131-8.722,14.762-17.114,20.399-8.748
		c17.217,25.548,21.29,29.031,18.836,39.49c-6.167,26.29-33.805,52.184-60.407,56.548
		C1162.467,600.19,1142.319,594.778,1132.843,583.001z"/>
	<path d="M461.078,971.568c-17.245,27.663-39.499,50.413-66.675,68.336c-2.455,1.619-5.38,5.27-8.364,2.695
		c-2.729-2.355-0.434-6.073,0.719-9.018c12.779-32.633,35.434-91.719,61.148-139.585c3.659-6.812,9.517-4.875,10.788,1.948
		c2.497,13.404,4.118,26.913,5.138,40.499C465.372,956.938,466.589,962.728,461.078,971.568z"/>
	<path d="M1178.924,1214.988c-1.454,6.132-6.322,9.669-12.005,12.178c-33.318,14.705-71.876,39.812-82.533,52.38
		c-8.749,10.318-22.546,16.463-17.978,6.214c12.875-28.894,37.039-60.743,61.065-84.39c6.599-6.496,18.877-28.575,46.885-33.255
		C1188.295,1165.784,1188.389,1175.061,1178.924,1214.988z"/>
	<path d="M641.244,703.321c-13.424-9.113-13.563-10.095-3.321-22.341c14.641-17.506,30.873-33.383,48.935-47.353
		c6.047-4.677,12.377-7.467,16.77-1.065c23.807,34.697,38.492,35.613,35.843,45.509c-3.141,11.733-20.491,2.422-71.015,28.23
		C654.826,713.263,649.58,708.98,641.244,703.321z"/>
	<path d="M430.176,1547.246c16.999,28.21-46.649,3.033-92.092-39.913c-7.838-7.407-7.103-12.113,2.977-16.2
		c13.727-5.565,27.366-11.528,41.97-14.629C403.687,1472.12,391.21,1482.58,430.176,1547.246z"/>
	<path d="M910.074,580.899c-13.957-4.761-9.551-14.053-2.298-15.88c26.859-6.766,52.714-4.3,75.949,10.566
		c8.109,5.188,3.529,14.071-3.255,14.572C959.931,591.675,933.742,588.972,910.074,580.899z"/>
	<path d="M537.452,1308.907c1.487-12.999,3.176-27.272,14.453-20.509c23.8,14.274,55.34,46.304,46.833,53.918
		c-3.552,3.178-20.481-11.305-55.133-24.655C539.457,1316.063,537.428,1312.999,537.452,1308.907z"/>
</g>
</svg>
